<svg width="1486" height="623" viewBox="0 0 1486 623" fill="none" xmlns="http://www.w3.org/2000/svg">
<g clip-path="url(#clip0_45_1924)">
<path d="M1151.15 536.291C1191.87 525.069 1222.16 504.795 1222.16 471.074C1222.16 425.814 1168.81 408.663 1119.69 408.663C1070.58 408.663 1030.13 426.079 1006.86 448.577L1046.15 489.92C1068.04 471.392 1093.31 462.075 1115.46 462.075C1130.06 462.075 1142.96 465.993 1142.96 472.451C1142.96 480.021 1124.72 484.256 1103.36 489.867C1044.4 505.324 1010.99 537.932 1006.81 578.375V611.566H1225.49V556.46H1095.8C1101.72 551.96 1126.67 542.961 1151.1 536.238L1151.15 536.291Z" fill="white"/>
<path d="M1451.47 526.763V414.91H1381.31L1239.93 535.127V579.063H1375.65V611.672H1451.42V579.063H1485.95V526.816H1451.42L1451.47 526.763ZM1375.71 526.763H1326.32L1375.71 484.308V526.763Z" fill="white"/>
<path d="M542.796 414.91V611.619H464.226V541.955H374.395V611.619H295.772V414.91H374.395V481.767H464.226V414.91H542.796Z" fill="white"/>
<path d="M762.907 553.178V611.619H563.575V414.91H642.197V553.178H762.907Z" fill="white"/>
<path d="M199.226 414.91V509.612L111.087 414.91H110.875H0L27.9699 436.031V611.619H103.737V504.53L205.941 611.619H274.993V414.91H199.226Z" fill="white"/>
<path d="M974.135 459.005L981.537 442.172L964.036 437.037C958.696 435.449 954.783 431.32 952.351 424.756L944.632 403.582L927.395 417.874C922.795 421.633 918.195 423.591 913.648 423.591C907.568 423.591 900.588 420.627 895.936 416.021L884.832 405.011L873.729 416.021C869.076 420.627 862.15 423.591 856.016 423.591C851.469 423.591 846.816 421.686 842.269 417.874L825.033 403.582L817.313 424.756C814.934 431.32 810.968 435.449 805.681 437.037L788.18 442.172L795.582 459.005C799.019 466.787 800.764 474.939 800.764 483.144C800.764 505.906 789.132 511.147 789.132 536.45C789.132 572.923 817.313 596.797 843.485 603.52C856.704 606.749 860.722 606.96 872.619 609.925C873.57 610.984 884.779 623.053 884.779 623.053C884.779 623.053 895.989 610.984 896.94 609.925C908.89 607.013 912.908 606.749 926.126 603.52C952.298 596.797 980.48 572.923 980.48 536.45C980.48 511.147 968.848 505.959 968.848 483.144C968.848 474.939 970.593 466.787 974.029 459.005H974.135Z" fill="black"/>
<path d="M977.73 536.344C977.73 524.381 975.034 517.076 972.232 510.035C969.218 502.518 966.098 495.319 966.098 483.038C966.098 473.351 968.425 464.722 971.492 457.735L977.572 443.866L963.243 439.631C957.004 437.778 952.457 433.067 949.708 425.603L943.363 408.24L929.246 419.939C924.593 423.803 919.306 426.291 913.648 426.291C906.087 426.291 898.632 422.533 893.927 417.874L884.832 408.875L875.738 417.927C871.085 422.533 863.577 426.344 856.016 426.344C850.359 426.344 845.072 423.803 840.419 419.992L826.302 408.293L819.957 425.656C817.208 433.12 812.661 437.831 806.421 439.684L792.04 443.919L798.173 457.788C801.24 464.775 803.566 473.351 803.566 483.091C803.566 506.806 791.987 511.518 791.987 536.397C791.987 543.967 793.256 551.06 795.582 557.624C803.408 579.752 823.024 595.262 844.173 600.714C857.708 604.155 864.053 604.473 874.152 607.331C875.474 608.707 884.832 618.818 884.832 618.818C884.832 618.818 894.191 608.654 895.46 607.278C905.559 604.473 911.903 604.102 925.439 600.661C952.88 593.568 977.625 569.694 977.625 536.344H977.73ZM923.906 594.256C909.366 597.909 899.372 598.861 891.97 601.508C891.019 602.408 884.885 609.131 884.885 609.131C884.885 609.131 878.752 602.461 877.8 601.561C870.398 598.914 860.405 597.961 845.865 594.309C815.304 586.58 798.596 560.801 798.596 536.344C798.596 516.493 807.849 508.871 809.805 490.131V490.026C810.017 487.855 810.175 485.579 810.175 483.091C810.175 464.193 801.134 448.206 801.134 448.206C801.134 448.206 823.288 446.248 829.316 419.304C829.316 419.304 842.587 433.014 856.069 433.014C873.465 433.014 884.885 418.192 884.885 418.192C884.885 418.192 896.306 432.961 913.701 432.961C927.184 432.961 940.455 419.251 940.455 419.251C946.482 446.195 968.636 448.153 968.636 448.153C968.636 448.153 959.648 464.14 959.648 483.038C959.648 507.283 971.227 514.164 971.227 536.344C971.227 560.801 954.519 586.474 923.958 594.203L923.906 594.256Z" fill="white"/>
<path d="M964.089 596.056C958.96 596.056 954.783 600.238 954.783 605.372C954.783 610.507 958.908 614.689 964.089 614.689C969.271 614.689 973.342 610.507 973.342 605.372C973.342 600.238 969.165 596.056 964.089 596.056ZM964.089 612.677C960.071 612.677 956.793 609.395 956.793 605.372C956.793 601.349 960.071 598.067 964.089 598.067C968.107 598.067 971.386 601.349 971.386 605.372C971.386 609.395 968.107 612.677 964.089 612.677Z" fill="white"/>
<path d="M967.896 603.202C967.896 601.455 966.469 600.079 964.724 600.079H960.229V610.666H962.239V606.378H963.666L965.675 610.666H967.843L965.728 606.167C966.944 605.743 967.843 604.579 967.843 603.202H967.896ZM964.724 604.367H962.239V602.038H964.724C965.358 602.038 965.887 602.567 965.887 603.202C965.887 603.838 965.358 604.367 964.724 604.367Z" fill="white"/>
<path d="M858.66 537.879L847.081 520.093L834.233 529.78C834.233 529.78 838.727 529.886 838.727 534.65V568.159L847.821 561.33V537.668L858.184 553.548L867.754 546.349V504.636L858.66 511.464V537.985V537.879Z" fill="white"/>
<path d="M895.513 499.078L885.255 506.806V491.402L871.403 501.83C871.403 501.83 875.897 501.936 875.897 506.7V540.209L885.255 533.168V517.923L895.513 510.194V525.493L904.395 518.823V477.056L895.513 483.726V499.131V499.078Z" fill="white"/>
<path d="M921.526 495.213V464.14L907.674 474.568C907.674 474.568 912.168 474.674 912.168 479.439V512.947L937.97 493.572C937.388 486.902 937.97 482.932 937.97 482.932L921.526 495.319V495.213Z" fill="white"/>
<path d="M953.092 483.038C953.092 465.728 959.648 452.388 959.648 452.388C959.648 452.388 944.579 449.318 937.547 430.208C937.547 430.208 927.554 439.578 913.701 439.578C896.412 439.578 884.885 427.403 884.885 427.403C884.885 427.403 873.412 439.578 856.069 439.578C842.27 439.578 832.277 430.208 832.277 430.208C825.244 449.318 810.176 452.388 810.176 452.388C810.176 452.388 816.732 465.728 816.732 483.038C816.732 508.712 805.153 516.123 805.153 536.344C805.153 564.612 827.148 582.61 847.557 587.798C863.736 591.927 874.258 592.35 881.396 595.791C881.396 595.791 883.986 598.173 884.938 599.232C885.89 598.173 888.481 595.791 888.481 595.791C895.566 592.35 906.14 591.874 922.32 587.798C942.729 582.61 964.724 564.612 964.724 536.344C964.724 516.123 953.145 508.712 953.145 483.038H953.092ZM824.134 483.038C824.134 472.027 821.755 462.552 819.693 456.411C824.451 453.818 830.426 449.159 835.185 441.219C840.313 444.077 847.557 446.989 856.069 446.989C869.023 446.989 879.069 441.325 884.885 437.09C890.648 441.325 900.747 446.989 913.701 446.989C915.763 446.989 917.772 446.83 919.623 446.512L813.824 526.075C816.89 514.111 824.081 504.212 824.081 483.038H824.134ZM838.568 576.522C825.033 569.535 813.189 556.195 812.608 537.826L936.754 444.448C941.089 450.483 946.06 454.188 950.131 456.411C948.069 462.552 945.689 472.027 945.689 483.038C945.689 487.59 946.007 491.614 946.588 495.266L838.516 576.522H838.568ZM920.522 580.651C907.727 583.933 892.076 585.574 887.318 588.274C886.26 589.068 884.938 590.444 884.938 590.444C884.938 590.444 883.616 589.068 882.559 588.274C877.853 585.574 862.15 583.88 849.407 580.651C848.932 580.546 848.403 580.387 847.927 580.228L948.65 504.53C952.087 516.546 957.322 524.381 957.322 536.344C957.322 560.324 938.234 576.099 920.522 580.598V580.651Z" fill="white"/>
<path d="M742.762 381.137C847.715 381.137 933.105 295.646 933.105 190.568C933.105 85.4911 847.715 0 742.762 0C637.809 0 552.419 85.4911 552.419 190.568C552.419 295.646 637.809 381.137 742.762 381.137Z" fill="#D4D4D6"/>
<path d="M906.722 190.568C906.722 281.247 833.334 354.722 742.762 354.722C652.19 354.722 578.855 281.247 578.855 190.568C578.855 99.8896 652.243 26.4678 742.762 26.4678C833.281 26.4678 906.722 99.9425 906.722 190.568Z" fill="white"/>
<path d="M671.647 88.1907H769.516L754.5 111.959H656.684L671.647 88.1907ZM742.497 207.296H713.893H618.616L648.753 159.601H626.652L641.721 135.78H733.879L718.81 159.601H677.516L662.236 183.475H728.751L789.555 87.3438L865.269 207.296H836.717L821.702 183.475H776.971L792.04 159.601H806.686L789.607 132.551L742.603 207.296H742.497Z" fill="#E81337"/>
<path d="M872.83 222.118H870.874V226.247H869.922V222.118H867.966V221.271H872.83V222.118Z" fill="#213168"/>
<path d="M879.492 226.247H878.593V223.177C878.593 223.177 878.593 222.912 878.593 222.647C878.487 222.859 878.487 223.018 878.329 223.177L876.743 225.612H876.584L874.945 223.124C874.945 223.124 874.733 222.806 874.628 222.647C874.628 222.859 874.733 223.018 874.733 223.177V226.247H873.887V221.271H874.733L876.69 224.288L878.646 221.271H879.386V226.247H879.492Z" fill="#213168"/>
<path d="M651.82 260.073C651.82 263.143 650.763 265.737 648.648 267.801C646.533 269.919 643.942 271.031 640.928 271.031H628.027C624.961 271.031 622.423 270.025 620.361 267.96C618.299 265.896 617.294 263.355 617.294 260.232V255.097H625.225L626.388 259.808C626.917 261.767 628.239 262.773 630.459 262.773H639.183C640.294 262.773 641.14 262.402 641.827 261.555C642.462 260.761 642.832 259.755 642.832 258.538V252.927C642.832 250.174 641.616 248.745 639.183 248.745H628.239C625.225 248.745 622.634 247.686 620.466 245.568C618.351 243.398 617.294 240.857 617.294 237.787V230.376C617.294 227.412 618.351 224.818 620.466 222.7C622.634 220.583 625.225 219.471 628.239 219.471H640.981C643.995 219.471 646.533 220.477 648.595 222.541C650.657 224.606 651.714 227.147 651.714 230.217V234.823H643.836L642.62 230.641C641.986 228.629 640.611 227.676 638.602 227.676H629.984C628.873 227.676 627.974 228.1 627.34 228.894C626.653 229.688 626.335 230.694 626.335 231.964V236.305C626.335 239.004 627.551 240.381 630.036 240.381H640.981C643.942 240.381 646.533 241.44 648.648 243.61C650.763 245.78 651.873 248.321 651.873 251.338V260.02L651.82 260.073Z" fill="#213168"/>
<path d="M683.914 227.888H671.542V243.875H683.914C684.972 243.875 685.87 243.451 686.558 242.657C687.245 241.863 687.615 240.857 687.615 239.64V232.123C687.615 230.852 687.245 229.9 686.558 229.106C685.87 228.312 684.972 227.888 683.914 227.888ZM696.656 241.228C696.656 244.245 695.599 246.839 693.484 248.956C691.316 251.074 688.725 252.186 685.712 252.186H671.542V271.084H662.448V219.63H685.712C688.725 219.63 691.316 220.689 693.484 222.859C695.599 224.977 696.656 227.518 696.656 230.482V241.281V241.228Z" fill="#213168"/>
<path d="M772.318 227.888H760.422V242.604H772.318C773.376 242.604 774.221 242.234 774.909 241.44C775.543 240.646 775.913 239.64 775.913 238.422V232.07C775.913 230.852 775.596 229.847 774.909 229.053C774.274 228.259 773.376 227.835 772.318 227.835V227.888ZM777.394 271.031L769.04 250.862H760.422V271.031H751.327V219.577H774.063C777.129 219.577 779.667 220.636 781.782 222.806C783.897 224.924 785.008 227.517 785.008 230.429V239.428C785.008 241.757 784.373 243.875 783.104 245.78C781.782 247.633 780.09 248.956 778.081 249.856L787.122 271.137H777.447L777.394 271.031Z" fill="#213168"/>
<path d="M826.037 227.888H812.872V271.031H803.778V227.888H790.718V219.577H826.037V227.888Z" fill="#213168"/>
<path d="M867.278 260.073C867.278 263.143 866.221 265.737 864.106 267.801C861.991 269.919 859.4 271.031 856.333 271.031H843.485C840.419 271.031 837.881 270.025 835.819 267.96C833.757 265.896 832.752 263.355 832.752 260.232V255.097H840.683L841.899 259.808C842.481 261.767 843.802 262.773 845.97 262.773H854.694C855.805 262.773 856.704 262.402 857.391 261.555C858.025 260.761 858.395 259.755 858.395 258.538V252.927C858.395 250.174 857.179 248.745 854.747 248.745H843.802C840.789 248.745 838.198 247.686 836.083 245.568C833.968 243.398 832.858 240.857 832.858 237.787V230.376C832.858 227.412 833.968 224.818 836.083 222.7C838.198 220.583 840.789 219.471 843.802 219.471H856.492C859.559 219.471 862.097 220.477 864.159 222.541C866.221 224.606 867.278 227.147 867.278 230.217V234.823H859.4L858.184 230.641C857.549 228.629 856.228 227.676 854.166 227.676H845.547C844.437 227.676 843.538 228.1 842.904 228.894C842.269 229.688 841.899 230.694 841.899 231.964V236.305C841.899 239.004 843.115 240.381 845.547 240.381H856.492C859.506 240.381 862.044 241.44 864.159 243.61C866.379 245.78 867.437 248.321 867.437 251.338V260.02L867.278 260.073Z" fill="#213168"/>
<path d="M740.224 259.967C740.224 263.09 739.167 265.684 736.999 267.802C734.831 269.919 732.293 271.031 729.279 271.031H717.013C713.946 271.031 711.355 269.972 709.24 267.802C707.125 265.684 706.015 263.09 706.015 259.967V230.376C706.015 227.412 707.073 224.818 709.24 222.753C711.355 220.636 713.946 219.524 717.013 219.524H729.279C732.346 219.524 734.884 220.583 736.999 222.7C739.167 224.765 740.224 227.359 740.224 230.376V259.967ZM727.482 227.835H718.758C717.594 227.835 716.748 228.206 716.061 229.053C715.427 229.847 715.109 230.852 715.109 232.07V258.432C715.109 259.649 715.427 260.602 716.061 261.449C716.748 262.296 717.647 262.72 718.758 262.72H727.482C728.539 262.72 729.438 262.296 730.072 261.449C730.76 260.655 731.13 259.649 731.13 258.432V232.07C731.13 230.852 730.813 229.847 730.072 229.053C729.385 228.259 728.486 227.835 727.482 227.835Z" fill="#213168"/>
</g>
<defs>
<clipPath id="clip0_45_1924">
<rect width="1486" height="623" fill="white"/>
</clipPath>
</defs>
</svg>
